<mxfile host="app.diagrams.net" modified="2022-08-24T11:06:51.929Z" agent="5.0 (X11; Linux x86_64) AppleWebKit/537.36 (KHTML, like Gecko) Chrome/104.0.0.0 Safari/537.36" etag="cxQZ6teN4llndtmts4vm" version="20.2.7" type="github">
  <diagram id="XW8vENIFGyCkZWUnIW_Q" name="Página-1">
    <mxGraphModel dx="1177" dy="493" grid="1" gridSize="10" guides="1" tooltips="1" connect="1" arrows="1" fold="1" page="1" pageScale="1" pageWidth="827" pageHeight="1169" math="0" shadow="0">
      <root>
        <mxCell id="0" />
        <mxCell id="1" parent="0" />
        <mxCell id="pDh90iwZxwm8CgdOQc3U-9" style="edgeStyle=orthogonalEdgeStyle;rounded=0;orthogonalLoop=1;jettySize=auto;html=1;" edge="1" parent="1" source="pDh90iwZxwm8CgdOQc3U-4" target="pDh90iwZxwm8CgdOQc3U-7">
          <mxGeometry relative="1" as="geometry" />
        </mxCell>
        <mxCell id="pDh90iwZxwm8CgdOQc3U-4" value="Pessoa" style="whiteSpace=wrap;html=1;align=center;" vertex="1" parent="1">
          <mxGeometry x="128" y="223" width="100" height="40" as="geometry" />
        </mxCell>
        <mxCell id="pDh90iwZxwm8CgdOQc3U-10" style="edgeStyle=orthogonalEdgeStyle;rounded=0;orthogonalLoop=1;jettySize=auto;html=1;" edge="1" parent="1" source="pDh90iwZxwm8CgdOQc3U-5" target="pDh90iwZxwm8CgdOQc3U-7">
          <mxGeometry relative="1" as="geometry" />
        </mxCell>
        <mxCell id="pDh90iwZxwm8CgdOQc3U-5" value="Banco" style="whiteSpace=wrap;html=1;align=center;" vertex="1" parent="1">
          <mxGeometry x="388" y="80" width="100" height="40" as="geometry" />
        </mxCell>
        <mxCell id="pDh90iwZxwm8CgdOQc3U-11" style="edgeStyle=orthogonalEdgeStyle;rounded=0;orthogonalLoop=1;jettySize=auto;html=1;exitX=0;exitY=0.5;exitDx=0;exitDy=0;" edge="1" parent="1" source="pDh90iwZxwm8CgdOQc3U-6" target="pDh90iwZxwm8CgdOQc3U-7">
          <mxGeometry relative="1" as="geometry" />
        </mxCell>
        <mxCell id="pDh90iwZxwm8CgdOQc3U-6" value="Company" style="whiteSpace=wrap;html=1;align=center;" vertex="1" parent="1">
          <mxGeometry x="650" y="223" width="100" height="40" as="geometry" />
        </mxCell>
        <mxCell id="pDh90iwZxwm8CgdOQc3U-12" style="edgeStyle=orthogonalEdgeStyle;rounded=0;orthogonalLoop=1;jettySize=auto;html=1;exitX=0.5;exitY=1;exitDx=0;exitDy=0;entryX=0.425;entryY=-0.033;entryDx=0;entryDy=0;entryPerimeter=0;" edge="1" parent="1" source="pDh90iwZxwm8CgdOQc3U-7" target="pDh90iwZxwm8CgdOQc3U-8">
          <mxGeometry relative="1" as="geometry" />
        </mxCell>
        <mxCell id="pDh90iwZxwm8CgdOQc3U-7" value="U" style="ellipse;whiteSpace=wrap;html=1;aspect=fixed;" vertex="1" parent="1">
          <mxGeometry x="398" y="203" width="80" height="80" as="geometry" />
        </mxCell>
        <mxCell id="pDh90iwZxwm8CgdOQc3U-8" value="Owner" style="rounded=0;whiteSpace=wrap;html=1;" vertex="1" parent="1">
          <mxGeometry x="387" y="400" width="120" height="60" as="geometry" />
        </mxCell>
        <mxCell id="pDh90iwZxwm8CgdOQc3U-18" style="edgeStyle=orthogonalEdgeStyle;rounded=0;orthogonalLoop=1;jettySize=auto;html=1;exitX=0.5;exitY=1;exitDx=0;exitDy=0;entryX=0.25;entryY=0;entryDx=0;entryDy=0;" edge="1" parent="1" source="pDh90iwZxwm8CgdOQc3U-14" target="pDh90iwZxwm8CgdOQc3U-4">
          <mxGeometry relative="1" as="geometry" />
        </mxCell>
        <mxCell id="pDh90iwZxwm8CgdOQc3U-14" value="Cpf&lt;br&gt;" style="ellipse;whiteSpace=wrap;html=1;" vertex="1" parent="1">
          <mxGeometry x="83" y="153" width="70" height="40" as="geometry" />
        </mxCell>
        <mxCell id="pDh90iwZxwm8CgdOQc3U-19" style="edgeStyle=orthogonalEdgeStyle;rounded=0;orthogonalLoop=1;jettySize=auto;html=1;" edge="1" parent="1" source="pDh90iwZxwm8CgdOQc3U-15" target="pDh90iwZxwm8CgdOQc3U-4">
          <mxGeometry relative="1" as="geometry" />
        </mxCell>
        <mxCell id="pDh90iwZxwm8CgdOQc3U-15" value="Endereço" style="ellipse;whiteSpace=wrap;html=1;" vertex="1" parent="1">
          <mxGeometry x="163" y="153" width="70" height="40" as="geometry" />
        </mxCell>
        <mxCell id="pDh90iwZxwm8CgdOQc3U-21" style="edgeStyle=orthogonalEdgeStyle;rounded=0;orthogonalLoop=1;jettySize=auto;html=1;entryX=1;entryY=0.25;entryDx=0;entryDy=0;" edge="1" parent="1" source="pDh90iwZxwm8CgdOQc3U-16" target="pDh90iwZxwm8CgdOQc3U-4">
          <mxGeometry relative="1" as="geometry">
            <mxPoint x="240" y="230" as="targetPoint" />
            <Array as="points">
              <mxPoint x="248" y="113" />
              <mxPoint x="248" y="233" />
            </Array>
          </mxGeometry>
        </mxCell>
        <mxCell id="pDh90iwZxwm8CgdOQc3U-16" value="Nome" style="ellipse;whiteSpace=wrap;html=1;" vertex="1" parent="1">
          <mxGeometry x="163" y="93" width="70" height="40" as="geometry" />
        </mxCell>
        <mxCell id="pDh90iwZxwm8CgdOQc3U-20" style="edgeStyle=orthogonalEdgeStyle;rounded=0;orthogonalLoop=1;jettySize=auto;html=1;exitX=0;exitY=0.5;exitDx=0;exitDy=0;entryX=0;entryY=0.75;entryDx=0;entryDy=0;" edge="1" parent="1" source="pDh90iwZxwm8CgdOQc3U-17" target="pDh90iwZxwm8CgdOQc3U-4">
          <mxGeometry relative="1" as="geometry" />
        </mxCell>
        <mxCell id="pDh90iwZxwm8CgdOQc3U-17" value="Licença" style="ellipse;whiteSpace=wrap;html=1;" vertex="1" parent="1">
          <mxGeometry x="83" y="93" width="70" height="40" as="geometry" />
        </mxCell>
        <mxCell id="pDh90iwZxwm8CgdOQc3U-22" value="Nome" style="ellipse;whiteSpace=wrap;html=1;" vertex="1" parent="1">
          <mxGeometry x="500" y="30" width="70" height="50" as="geometry" />
        </mxCell>
        <mxCell id="pDh90iwZxwm8CgdOQc3U-23" value="Endereço" style="ellipse;whiteSpace=wrap;html=1;" vertex="1" parent="1">
          <mxGeometry x="520" y="103" width="70" height="50" as="geometry" />
        </mxCell>
        <mxCell id="pDh90iwZxwm8CgdOQc3U-25" value="Nome" style="ellipse;whiteSpace=wrap;html=1;" vertex="1" parent="1">
          <mxGeometry x="665" y="143" width="70" height="50" as="geometry" />
        </mxCell>
        <mxCell id="pDh90iwZxwm8CgdOQc3U-26" value="Endereço" style="ellipse;whiteSpace=wrap;html=1;" vertex="1" parent="1">
          <mxGeometry x="665" y="300" width="70" height="50" as="geometry" />
        </mxCell>
      </root>
    </mxGraphModel>
  </diagram>
</mxfile>
